<?xml version="1.0"?>
<svg xmlns="http://www.w3.org/2000/svg" xmlns:xlink="http://www.w3.org/1999/xlink" xmlns:svgjs="http://svgjs.com/svgjs" version="1.1" width="28" height="28" x="0" y="0" viewBox="0 0 466.302 466.302" style="enable-background:new 0 0 512 512" xml:space="preserve" class=""><g>
<g xmlns="http://www.w3.org/2000/svg">
	<g>
		<path d="M426.3,77.451l-178.8-4.4c-1.3,0-2.5,0.2-3.7,0.6l-68.9,26.1c-2.2,0.9-4.1,2.5-5.2,4.6h-57.5c-1.5,0-3,0.3-4.3,0.9    l-42.9,20.8c-3.4,1.7-5.6,5.1-5.6,9v10.3H10c-5.5,0-10,4.5-10,10s4.5,10,10,10h49.3v2.3c0,3.8,2.2,7.3,5.6,9l39,18.9l3.9,1.8    c1.4,0.6,2.8,0.9,4.3,0.9h56.2v0.5c0,4.4,3,8.3,7.2,9.6l68.9,20.6c1,0.2,1.9,0.3,2.9,0.3h17v22.8c0,11.2,9.5,20.2,20.8,20.2h22.2    v49h-10.9c-19.9,0-36,16.1-36,36c0,19.9,16.1,36,36,36h98.8c19.8,0.1,36-15.9,36.1-35.8c0-18.1-14-33.1-31-35.5v-92.6h25.2    c22.5,0.1,40.7-18,40.8-40.5c0-0.1,0-0.3,0-0.4v-69.8C466.5,96.251,448.7,77.951,426.3,77.451z M98.3,170.651l-19-9.2v-20.1    l19-9.2V170.651z M168.3,178.351h-50v-54h50V178.351z M237.3,206.251l-49-14.8v-75.5l49-18.5V206.251z M285.1,252.351    c-0.2,0-0.8,0-0.8-0.2v-22.8h23v23H285.1z M411.2,357.551c0,4.2-1.7,8.2-4.7,11.2s-7.1,4.7-11.3,4.6h-98.8    c-8.8,0.1-15.9-7-16-15.7v-0.1c0-4.2,1.7-8.2,4.7-11.2l0.1-0.2c3-3,7-4.8,11.2-4.8h20.8c5.4,0.2,9.9-4.1,10.1-9.5    c0-0.1,0-0.1,0-0.2v-102.3h53v102.3c-0.1,5.2,4,9.6,9.3,9.7c0.1,0,0.3,0,0.4,0h5.2C404.1,341.451,411.2,348.651,411.2,357.551z     M446.3,188.451c0.1,11.4-9,20.7-20.4,20.9c-0.1,0-0.3,0-0.4,0H257.3v-116.1l168.5,4.2c11.4,0.4,20.5,9.8,20.5,21.2V188.451z" fill="#4c4c4c" data-original="#000000" style="" class=""/>
	</g>
</g>
<g xmlns="http://www.w3.org/2000/svg">
	<g>
		<path d="M410.3,119.051c-5.5,0-10,4.5-10,10v49c0,5.5,4.5,10,10,10s10-4.5,10-10v-49C420.3,123.551,415.8,119.051,410.3,119.051z" fill="#4c4c4c" data-original="#000000" style="" class=""/>
	</g>
</g>
<g xmlns="http://www.w3.org/2000/svg">
	<g>
		<path d="M378.3,119.051c-5.5,0-10,4.5-10,10v49c0,5.5,4.5,10,10,10s10-4.5,10-10v-49C388.3,123.551,383.8,119.051,378.3,119.051z" fill="#4c4c4c" data-original="#000000" style="" class=""/>
	</g>
</g>
<g xmlns="http://www.w3.org/2000/svg">
	<g>
		<path d="M347.3,119.051c-5.5,0-10,4.5-10,10v49c0,5.5,4.5,10,10,10s10-4.5,10-10v-49C357.3,123.551,352.8,119.051,347.3,119.051z" fill="#4c4c4c" data-original="#000000" style="" class=""/>
	</g>
</g>
<g xmlns="http://www.w3.org/2000/svg">
</g>
<g xmlns="http://www.w3.org/2000/svg">
</g>
<g xmlns="http://www.w3.org/2000/svg">
</g>
<g xmlns="http://www.w3.org/2000/svg">
</g>
<g xmlns="http://www.w3.org/2000/svg">
</g>
<g xmlns="http://www.w3.org/2000/svg">
</g>
<g xmlns="http://www.w3.org/2000/svg">
</g>
<g xmlns="http://www.w3.org/2000/svg">
</g>
<g xmlns="http://www.w3.org/2000/svg">
</g>
<g xmlns="http://www.w3.org/2000/svg">
</g>
<g xmlns="http://www.w3.org/2000/svg">
</g>
<g xmlns="http://www.w3.org/2000/svg">
</g>
<g xmlns="http://www.w3.org/2000/svg">
</g>
<g xmlns="http://www.w3.org/2000/svg">
</g>
<g xmlns="http://www.w3.org/2000/svg">
</g>
</g></svg>
