<?xml version="1.0"?>
<svg xmlns="http://www.w3.org/2000/svg" xmlns:xlink="http://www.w3.org/1999/xlink" xmlns:svgjs="http://svgjs.com/svgjs" version="1.1" width="29" height="29" x="0" y="0" viewBox="0 0 74 74" style="enable-background:new 0 0 512 512" xml:space="preserve" class=""><g><g xmlns="http://www.w3.org/2000/svg" id="Icons"><path d="m50 58h-26a5.006 5.006 0 0 1 -5-5v-32a5.006 5.006 0 0 1 5-5h26a5.006 5.006 0 0 1 5 5v32a5.006 5.006 0 0 1 -5 5zm-26-40a3 3 0 0 0 -3 3v32a3 3 0 0 0 3 3h26a3 3 0 0 0 3-3v-32a3 3 0 0 0 -3-3z" fill="#4c4c4c" data-original="#000000" style="" class=""/><path d="m49 72h-24a1 1 0 0 1 -1-.929l-1-14 2-.142.931 13.071h22.138l.931-13.071 2 .142-1 14a1 1 0 0 1 -1 .929z" fill="#4c4c4c" data-original="#000000" style="" class=""/><path d="m49 17.071-.931-13.071h-22.138l-.931 13.071-2-.142 1-14a1 1 0 0 1 1-.929h24a1 1 0 0 1 1 .929l1 14z" fill="#4c4c4c" data-original="#000000" style="" class=""/><path d="m47.293 33.371a14.574 14.574 0 0 0 -20.586 0l-1.414-1.414a16.573 16.573 0 0 1 23.414 0z" fill="#4c4c4c" data-original="#000000" style="" class=""/><path d="m44.15 36.513a10.124 10.124 0 0 0 -14.3 0l-1.414-1.413a12.125 12.125 0 0 1 17.129 0z" fill="#4c4c4c" data-original="#000000" style="" class=""/><path d="m41.007 39.656a5.674 5.674 0 0 0 -8.014 0l-1.414-1.414a7.673 7.673 0 0 1 10.842 0z" fill="#4c4c4c" data-original="#000000" style="" class=""/><path d="m37 46.886a3.222 3.222 0 1 1 3.223-3.222 3.226 3.226 0 0 1 -3.223 3.222zm0-4.445a1.222 1.222 0 1 0 1.223 1.223 1.224 1.224 0 0 0 -1.223-1.223z" fill="#4c4c4c" data-original="#000000" style="" class=""/></g></g></svg>
